<svg xmlns="http://www.w3.org/2000/svg" width="20" height="22" fill="none"><g fill="#AFB1B8" clip-path="url(#a)"><path d="M19.98 7.127c-.046-1.115-.218-1.882-.464-2.546a5.151 5.151 0 0 0-1.157-1.86 4.906 4.906 0 0 0-1.77-1.21c-.637-.258-1.363-.438-2.426-.487-1.07-.054-1.41-.066-4.126-.066-2.715 0-3.055.012-4.122.061-1.062.05-1.793.23-2.426.488A4.865 4.865 0 0 0 1.715 2.72 5.197 5.197 0 0 0 .563 4.577c-.247.668-.418 1.43-.465 2.545-.051 1.123-.063 1.48-.063 4.329 0 2.848.012 3.205.059 4.324.047 1.115.219 1.881.465 2.545a5.205 5.205 0 0 0 1.156 1.86c.5.534 1.106.948 1.77 1.21.637.258 1.364.439 2.426.488 1.067.049 1.407.061 4.122.061 2.716 0 3.056-.012 4.122-.061 1.063-.05 1.793-.23 2.426-.488 1.344-.545 2.407-1.66 2.927-3.07.246-.668.418-1.43.465-2.545.047-1.12.058-1.476.058-4.324 0-2.849-.004-3.206-.05-4.324Zm-1.8 8.566c-.044 1.025-.208 1.578-.344 1.947a3.403 3.403 0 0 1-1.9 1.992c-.35.143-.882.315-1.855.36-1.055.05-1.371.062-4.04.062-2.668 0-2.989-.012-4.04-.062-.977-.045-1.504-.217-1.856-.36a3.067 3.067 0 0 1-1.148-.783 3.282 3.282 0 0 1-.747-1.205c-.136-.369-.3-.926-.343-1.947-.047-1.107-.059-1.439-.059-4.238 0-2.8.012-3.136.059-4.238.043-1.025.207-1.578.343-1.947.16-.455.415-.869.75-1.205a3.094 3.094 0 0 1 1.15-.783c.35-.143.882-.316 1.855-.36 1.055-.05 1.372-.062 4.04-.062 2.672 0 2.989.012 4.04.061.977.045 1.504.218 1.856.361.433.168.828.434 1.148.783.332.34.586.75.747 1.205.136.369.3.926.343 1.947.047 1.106.059 1.438.059 4.238 0 2.8-.012 3.127-.059 4.234Z"/><path d="M10.037 6.06C7.201 6.06 4.9 8.476 4.9 11.45c0 2.976 2.302 5.39 5.138 5.39 2.837 0 5.138-2.414 5.138-5.39 0-2.975-2.301-5.39-5.138-5.39Zm0 8.887c-1.84 0-3.333-1.566-3.333-3.496 0-1.931 1.493-3.497 3.333-3.497s3.333 1.566 3.333 3.497c0 1.93-1.493 3.496-3.333 3.496ZM16.578 5.848c0 .695-.538 1.258-1.2 1.258-.662 0-1.2-.563-1.2-1.258 0-.695.537-1.259 1.2-1.259.662 0 1.2.564 1.2 1.259Z"/></g><defs><clipPath id="a"><path fill="#fff" d="M0 .958h20v20.98H0z"/></clipPath></defs></svg>