<svg xmlns="http://www.w3.org/2000/svg" width="20" height="22" fill="none"><g fill="#AFB1B8" clip-path="url(#a)"><path d="M19.995 21.94v-.002H20v-7.694c0-3.765-.772-6.665-4.967-6.665-2.017 0-3.37 1.161-3.923 2.262h-.058v-1.91H7.074v14.007h4.142v-6.936c0-1.826.33-3.592 2.486-3.592 2.124 0 2.156 2.084 2.156 3.71v6.82h4.137ZM.33 7.932h4.147v14.007H.33V7.932ZM2.402.958C1.076.958 0 2.087 0 3.478 0 4.867 1.076 6.02 2.402 6.02c1.325 0 2.401-1.153 2.401-2.544 0-1.39-1.076-2.52-2.401-2.52Z"/></g><defs><clipPath id="a"><path fill="#fff" d="M0 .958h20v20.98H0z"/></clipPath></defs></svg>