<svg xmlns="http://www.w3.org/2000/svg" width="20" height="22" fill="none"><g clip-path="url(#a)"><path fill="#AFB1B8" d="M20 4.943a8.24 8.24 0 0 1-2.363.68 4.247 4.247 0 0 0 1.804-2.378 7.966 7.966 0 0 1-2.6 1.041 4.022 4.022 0 0 0-2.995-1.361c-2.27 0-4.097 1.933-4.097 4.302 0 .341.027.67.095.981C6.435 8.034 3.419 6.32 1.393 3.71A4.494 4.494 0 0 0 .83 5.883c0 1.49.732 2.81 1.821 3.575A3.905 3.905 0 0 1 .8 8.928v.047c0 2.09 1.421 3.827 3.285 4.227a3.91 3.91 0 0 1-1.075.142 3.46 3.46 0 0 1-.776-.074c.531 1.703 2.038 2.956 3.831 2.996A7.997 7.997 0 0 1 0 18.042a11.155 11.155 0 0 0 6.29 1.93c7.545 0 11.67-6.556 11.67-12.24 0-.19-.006-.373-.015-.556A8.414 8.414 0 0 0 20 4.943Z"/></g><defs><clipPath id="a"><path fill="#fff" d="M0 .958h20v20.98H0z"/></clipPath></defs></svg>